<?xml version="1.0" standalone="no"?><!DOCTYPE svg PUBLIC "-//W3C//DTD SVG 1.1//EN" "http://www.w3.org/Graphics/SVG/1.1/DTD/svg11.dtd"><svg t="1583414284983" class="icon" viewBox="0 0 1024 1024" version="1.1" xmlns="http://www.w3.org/2000/svg" p-id="4844" xmlns:xlink="http://www.w3.org/1999/xlink" width="200" height="200"><defs><style type="text/css"></style></defs><path d="M832.2048 631.5008a25.61536 25.61536 0 0 0-36.1984 0l-64.1536 64.1536-68.5568-68.5568c87.8592-106.1376 82.1248-264.192-17.2032-363.52C594.944 212.48 527.0528 184.32 454.8096 184.32s-140.1856 28.16-191.232 79.2064S184.32 382.5664 184.32 454.8096s28.16 140.1856 79.2064 191.232c52.736 52.736 122.0096 79.104 191.232 79.104 61.2352 0 122.4704-20.6336 172.288-61.8496l68.5568 68.5568-64.1536 64.1536a25.61536 25.61536 0 0 0 0 36.1984c5.0176 5.0176 11.5712 7.4752 18.1248 7.4752s13.1072-2.5088 18.1248-7.4752l64.1536-64.1536 42.496 42.496c5.0176 5.0176 11.5712 7.4752 18.1248 7.4752s13.1072-2.5088 18.1248-7.4752a25.61536 25.61536 0 0 0 0-36.1984l-42.496-42.496 64.1536-64.1536a25.66656 25.66656 0 0 0-0.0512-36.1984z m-532.48-21.6576C258.304 568.4224 235.52 513.3824 235.52 454.8096c0-58.5728 22.784-113.6128 64.2048-155.0336C341.1456 258.304 396.2368 235.52 454.8096 235.52c58.5728 0 113.6128 22.784 155.0336 64.2048 85.504 85.504 85.504 224.6144 0 310.1184-85.504 85.504-224.6144 85.504-310.1184 0z" p-id="4845"></path></svg>