<?xml version="1.0" standalone="no"?><!DOCTYPE svg PUBLIC "-//W3C//DTD SVG 1.1//EN" "http://www.w3.org/Graphics/SVG/1.1/DTD/svg11.dtd"><svg t="1583410688363" class="icon" viewBox="0 0 1024 1024" version="1.1" xmlns="http://www.w3.org/2000/svg" p-id="4975" xmlns:xlink="http://www.w3.org/1999/xlink" width="200" height="200"><defs><style type="text/css"></style></defs><path d="M913.5 591.2L849 554c49-53.3 78-97.3 78-97.3s-185.8-283-415-283-415 283-415 283 29 44 78 97.3l-64.5 37.2c-9 5.2-12.1 16.7-6.9 25.8 5.2 9 16.7 12.1 25.8 6.9L202 582c33.1 33 72.9 67.1 117.4 95.2l-50 86.7c-5.2 9-2.1 20.6 6.9 25.8 9 5.2 20.6 2.1 25.8-6.9l50-86.6c43.8 23.2 91.3 39.4 141.2 42.7v95c0 10.4 8.4 18.9 18.9 18.9 10.4 0 18.9-8.4 18.9-18.9v-95c49.9-3.3 97.4-19.6 141.2-42.7l50 86.6c5.2 9 16.7 12.1 25.8 6.9 9-5.2 12.1-16.7 6.9-25.8l-50-86.7c44.5-28.1 84.3-62.2 117.4-95.2l72.6 41.9c9 5.2 20.6 2.1 25.8-6.9 4.8-9 1.7-20.6-7.3-25.8zM512 664.1c-117 0-223.8-84.5-294.9-158.2 1.6-7.3 3.5-14.5 5.6-21.6 68 72.5 174.6 161 289.3 161 114.5 0 221.2-88.6 289.3-161.1 2.1 7.1 4 14.3 5.6 21.6-71.2 73.7-178.2 158.3-294.9 158.3z" p-id="4976"></path></svg>