<?xml version="1.0" standalone="no"?><!DOCTYPE svg PUBLIC "-//W3C//DTD SVG 1.1//EN" "http://www.w3.org/Graphics/SVG/1.1/DTD/svg11.dtd"><svg t="1583410665356" class="icon" viewBox="0 0 1024 1024" version="1.1" xmlns="http://www.w3.org/2000/svg" p-id="4324" xmlns:xlink="http://www.w3.org/1999/xlink" width="200" height="200"><defs><style type="text/css"></style></defs><path d="M511.5 746c168.708 0 321.167-90.915 402.8-234-81.633-143.085-234.092-234-402.8-234s-321.167 90.915-402.8 234c81.633 143.085 234.092 234 402.8 234zM19.504 492.075C112.844 308.295 301.634 190 511.5 190c209.867 0 398.655 118.296 491.996 302.075l10.12 19.925-10.12 19.925C910.156 715.705 721.366 834 511.5 834c-209.867 0-398.655-118.296-491.996-302.075L9.384 512l10.12-19.925zM512 671c-87.813 0-159-71.187-159-159s71.187-159 159-159 159 71.187 159 159-71.187 159-159 159z m0-88c39.212 0 71-31.788 71-71s-31.788-71-71-71-71 31.788-71 71 31.788 71 71 71z" p-id="4325" fill="#515151"></path></svg>